<?xml version="1.0" standalone="no"?>
<!DOCTYPE svg PUBLIC "-//W3C//DTD SVG 20010904//EN"
 "http://www.w3.org/TR/2001/REC-SVG-20010904/DTD/svg10.dtd">
<svg version="1.0" xmlns="http://www.w3.org/2000/svg"
 width="500.000000pt" height="500.000000pt" viewBox="0 0 500.000000 500.000000"
 preserveAspectRatio="xMidYMid meet">
<metadata>
Created by potrace 1.11, written by Peter Selinger 2001-2013
</metadata>
<g transform="translate(0.000000,500.000000) scale(0.100000,-0.100000)"
fill="#000000" stroke="none">
<path d="M2250 4605 c-58 -7 -120 -16 -137 -19 -214 -40 -480 -137 -673 -247
-60 -34 -223 -145 -266 -181 -278 -233 -475 -489 -613 -797 -33 -75 -85 -214
-97 -260 -2 -9 -13 -52 -24 -96 -44 -174 -55 -278 -55 -505 0 -253 17 -375 81
-595 186 -631 645 -1132 1264 -1378 110 -44 346 -109 438 -121 140 -18 182
-21 327 -21 172 0 230 5 377 30 437 76 877 315 1173 639 302 330 488 718 551
1146 24 166 23 497 -1 625 -14 72 -36 181 -39 190 -142 531 -457 972 -899
1262 -233 153 -555 276 -837 319 -25 3 -54 8 -65 11 -53 11 -408 10 -505 -2z
m405 -510 c33 -3 74 -7 90 -10 17 -3 46 -8 65 -11 51 -8 209 -53 250 -71 193
-84 338 -168 450 -261 161 -132 317 -325 408 -502 46 -89 102 -221 102 -238 0
-4 -105 -9 -232 -10 -128 -1 -251 -4 -273 -6 -22 -3 -83 -8 -135 -11 -52 -4
-111 -9 -130 -11 -19 -2 -60 -6 -90 -9 -30 -3 -75 -7 -100 -10 -25 -3 -70 -7
-100 -10 -30 -3 -74 -7 -97 -10 -35 -3 -52 2 -100 31 -80 48 -142 65 -250 70
-121 4 -235 -28 -318 -92 -17 -13 -40 -22 -51 -20 -10 2 -41 7 -69 10 -27 4
-57 9 -65 11 -8 2 -53 9 -100 15 -47 5 -96 12 -110 14 -14 3 -47 7 -75 10 -27
4 -63 8 -80 10 -16 2 -70 7 -119 11 -50 4 -97 8 -105 10 -24 4 -223 17 -329
20 -52 2 -96 6 -99 9 -11 11 69 185 132 290 109 178 240 326 400 447 246 188
557 309 840 326 50 3 91 7 93 8 3 3 124 -3 197 -10z m-1667 -1525 c72 -26 351
-116 392 -125 8 -2 103 -26 210 -53 107 -28 247 -62 310 -76 l115 -27 30 -55
c17 -31 54 -78 83 -106 l52 -49 5 -167 c8 -249 20 -502 30 -587 2 -22 7 -76
10 -120 4 -44 8 -91 10 -105 2 -14 7 -47 10 -75 3 -27 8 -62 11 -78 5 -21 2
-27 -13 -27 -30 0 -244 57 -316 84 -314 120 -612 367 -790 655 -129 211 -218
477 -232 696 -8 120 -9 245 -2 245 2 0 40 -13 85 -30z m3109 -127 c-3 -71 -8
-139 -11 -153 -3 -14 -8 -43 -11 -65 -2 -22 -12 -67 -21 -100 -8 -33 -17 -67
-19 -75 -17 -76 -105 -278 -164 -374 -193 -315 -478 -550 -827 -681 -94 -36
-329 -91 -320 -76 3 4 8 34 11 66 4 33 9 62 10 65 2 3 6 34 10 70 4 36 9 72
10 81 2 9 6 52 10 95 4 43 8 90 10 104 2 14 7 70 10 125 4 55 8 116 10 135 2
19 6 114 10 210 4 96 8 185 10 197 2 12 19 36 38 52 38 34 117 147 117 168 0
7 2 13 6 13 20 0 401 79 554 115 198 47 490 128 518 145 42 24 44 17 39 -117z"/>
</g>
</svg>
